<svg width="38" height="38" viewBox="0 0 38 38" fill="none" xmlns="http://www.w3.org/2000/svg">
<path d="M35.9999 18.0556C36.0064 20.5487 35.424 23.008 34.2999 25.2334C32.9672 27.9 30.9184 30.1429 28.3829 31.7109C25.8475 33.2788 22.9255 34.11 19.9444 34.1111C17.4513 34.1176 14.992 33.5351 12.7666 32.4111L2 36L5.58888 25.2334C4.46487 23.008 3.88239 20.5487 3.88889 18.0556C3.89004 15.0745 4.72115 12.1525 6.28913 9.61708C7.85711 7.08163 10.1 5.03279 12.7666 3.70005C14.992 2.57603 17.4513 1.99355 19.9444 2.00005H20.8889C24.826 2.21726 28.5446 3.87904 31.3328 6.66722C34.121 9.4554 35.7827 13.174 35.9999 17.1111V18.0556Z" stroke="white" stroke-width="3" stroke-linecap="round" stroke-linejoin="round"/>
</svg>
