<svg width="75" height="81" viewBox="0 0 75 81" fill="none" xmlns="http://www.w3.org/2000/svg">
<g clip-path="url(#clip0_181_103)">
<path d="M62.6221 30.9525C64.3573 31.9534 65.9383 32.9544 67.5964 33.8398C69.7172 34.9948 70.6812 36.8042 71.0668 39.0756C71.1825 39.73 71.1825 40.3845 71.1825 41.039C71.1825 51.472 71.1825 61.9049 71.1825 72.2994C71.1825 77.4582 67.6735 81 62.5064 81C44.5373 81 26.5681 81 8.59897 81C4.31876 81 0.925448 78.3436 0.15424 74.3783C0.038559 73.8009 0.038559 73.1849 0.038559 72.6074C0.038559 61.9819 0.038559 51.395 0.038559 40.7695C0.038559 37.7281 1.19537 35.3797 3.7018 33.7243C5.89974 32.2614 8.13624 30.8755 10.3727 29.451C10.874 29.1431 11.0668 28.8351 11.0668 28.2191C11.0283 23.3298 11.0668 18.4021 11.0668 13.5128C11.0668 10.818 12.455 9.43203 15.1157 9.43203C22.5964 9.43203 30.0386 9.43203 37.5193 9.39353C38.0977 9.39353 38.7146 9.20104 39.1774 8.93155C41.5681 7.54562 43.9203 6.12119 46.2339 4.65826C46.5424 4.46577 46.8123 4.08079 46.8509 3.73431C47.3136 1.34743 48.9717 0.307979 51.5167 0.0769907C53.4833 -0.1155 54.9871 1.11644 55.6041 3.23383C57.9563 11.3569 60.3085 19.48 62.6992 27.5646C63.0463 28.7196 63.1619 29.7975 62.6221 30.9525ZM33.7789 12.2424C33.7789 12.1654 33.7404 12.1269 33.7404 12.0499C33.4704 12.0499 33.2005 12.0499 32.9306 12.0499C27.0308 12.0499 21.0925 12.0499 15.1928 12.0499C13.8432 12.0499 13.6504 12.2424 13.6504 13.6283C13.6504 22.7139 13.6504 31.7994 13.6504 40.885C13.6504 41.5009 13.8432 41.9244 14.3445 42.3094C19.8586 46.8137 25.3342 51.3565 30.8098 55.8607C32.3907 57.1697 34.0103 58.4786 35.5913 59.7875C35.7455 59.6721 35.8612 59.5951 35.9769 59.5181C42.8406 53.8588 49.6658 48.2381 56.5296 42.5404C56.7995 42.3094 56.9537 41.8474 56.9537 41.5009C56.9923 39.0756 56.9537 36.6502 56.9923 34.2248C56.9923 33.5703 56.9152 33.1084 56.2211 32.8389C55.7969 32.6849 55.527 32.2229 55.1414 31.9919C54.8715 31.7994 54.5244 31.6069 54.2545 31.6069C49.7044 31.7224 45.1542 31.8764 40.6041 32.0304C40.3342 32.0304 40.0257 32.0689 39.7172 32.1074C40.6812 35.4567 41.6452 38.6906 42.5707 41.9244C42.7635 42.5789 42.9177 43.3104 42.8792 44.0033C42.7249 46.3132 41.0668 47.9686 38.7532 48.2381C36.6709 48.4691 34.6658 47.0832 34.0103 44.8888C32.8535 40.962 31.6967 36.9967 30.5784 33.0699C30.5013 32.8389 30.4242 32.6079 30.347 32.3769C29.4601 32.6464 28.6504 32.8774 27.8406 33.0699C24.8329 33.8783 22.0566 32.3769 21.1311 29.4125C20.5913 27.6416 20.09 25.8707 19.5887 24.0998C18.7789 21.0585 20.3213 18.2866 23.329 17.4011C24.563 17.0162 25.874 16.8237 26.9923 16.2462C29.2673 15.0528 31.5039 13.6283 33.7789 12.2424ZM6.97943 78.0356C6.97943 78.1126 7.01799 78.1896 7.01799 78.2281C7.67352 78.2666 8.32905 78.3436 8.94601 78.3436C22.4807 78.3436 35.9769 78.3436 49.5116 78.3436C53.8303 78.3436 58.1105 78.3821 62.4293 78.3051C63.4319 78.3051 64.4344 77.9971 65.437 77.8432C65.437 77.7662 65.437 77.6507 65.437 77.5737C57.9177 70.798 50.3599 64.0608 42.8021 57.2467C40.9512 58.7481 39.1388 60.2495 37.3265 61.7894C35.8612 63.0214 35.3599 63.0214 33.9332 61.8279C32.3907 60.5575 30.8483 59.2871 29.2673 57.9781C21.7866 64.7153 14.383 71.3755 6.97943 78.0356ZM27.1465 56.2842C19.3188 49.8165 11.5681 43.4258 3.77892 37.0352C2.85347 38.1516 2.62211 39.3451 2.62211 40.654C2.62211 51.2795 2.62211 61.8664 2.62211 72.4919C2.62211 72.7999 2.62211 73.1464 2.66067 73.4544C2.81491 74.7633 3.35475 75.8413 4.35732 76.7652C11.9537 69.9895 19.5116 63.1754 27.1465 56.2842ZM67.5578 75.9182C68.329 74.8788 68.5604 73.7624 68.5604 72.5304C68.5604 61.9049 68.5604 51.241 68.5604 40.6155C68.5604 40.115 68.5604 39.6145 68.4447 39.1526C68.2134 38.3826 67.9049 37.6896 67.5964 36.8427C59.9229 43.1564 52.4422 49.3546 44.9229 55.5528C52.4422 62.4054 59.9614 69.1426 67.5578 75.9182ZM47.5064 7.04515C47.3522 7.12214 47.2365 7.12214 47.1979 7.19914C41.2596 10.7795 35.3599 14.3213 29.4216 17.9016C28.9589 18.1711 28.9203 18.4406 29.0745 18.9026C30.0771 22.2904 31.0797 25.6782 32.0051 29.0661C32.1594 29.6435 32.4293 29.759 32.9691 29.7205C38.329 29.528 43.6889 29.3355 49.0488 29.1816C50.6298 29.1431 52.1722 29.1816 53.9074 29.1816C51.7481 21.6744 49.6272 14.3983 47.5064 7.04515ZM51.8252 2.73336C49.9357 2.73336 49.2416 3.61882 49.7429 5.31273C51.2468 10.51 52.7506 15.7457 54.2931 20.943C55.1414 23.8303 55.9897 26.7177 56.838 29.605C56.9923 30.1825 57.3008 30.6445 57.9177 30.7985C59.4987 31.1065 60.6555 29.8745 60.1928 28.3731C58.8432 23.7148 57.4936 19.0566 56.1054 14.3598C55.1028 10.8565 54.0617 7.39163 53.0591 3.8883C52.8663 3.19534 52.4807 2.73336 51.8252 2.73336ZM26.491 19.249C25.5655 19.5185 24.7558 19.711 23.9075 19.9805C22.4036 20.4425 21.5938 21.7899 22.018 23.2913C22.5193 25.1778 23.0591 27.0642 23.6761 28.9121C24.0231 29.9515 24.7943 30.7215 25.9126 30.6445C27.1465 30.5675 28.3805 30.1825 29.653 29.9515C28.5347 26.2942 27.5321 22.8294 26.491 19.249ZM32.9691 32.2229C34.2031 36.4962 35.3599 40.5385 36.5938 44.5423C36.8638 45.4662 37.982 45.8512 38.9075 45.5432C39.8715 45.2353 40.4113 44.3113 40.1414 43.2719C39.1388 39.73 38.0977 36.1882 37.0566 32.6464C37.018 32.4539 36.7095 32.2614 36.5167 32.2614C35.3985 32.2229 34.2802 32.2229 32.9691 32.2229ZM65.1671 35.4567C63.7018 34.6098 62.3522 33.7628 60.964 32.9929C60.3085 32.6464 59.5373 33.1469 59.5373 33.8783C59.5373 35.0333 59.5373 36.2267 59.5373 37.3816C59.5373 38.1901 59.5373 39.0371 59.5373 40.038C61.5038 38.4596 63.2776 36.9967 65.1671 35.4567ZM11.0283 32.0304C9.21594 33.1854 7.55784 34.2248 5.82262 35.3413C7.5964 36.8042 9.2545 38.1516 11.0283 39.6145C11.0283 37.0352 11.0283 34.6483 11.0283 32.0304Z" fill="#81AED1"/>
<path d="M75 22.9833C75 24.1383 74.0745 24.8312 73.2262 24.3693C71.5681 23.5223 69.91 22.5983 68.2905 21.6744C67.6735 21.3279 67.5578 20.6734 67.9049 20.019C68.2519 19.3645 68.8689 19.095 69.4859 19.4415C71.1825 20.2885 72.8406 21.2124 74.4987 22.1749C74.7686 22.3674 74.8843 22.8293 75 22.9833Z" fill="#81AED1"/>
<path d="M67.1337 14.5908C66.2468 14.5523 65.7455 14.2443 65.6298 13.5898C65.4756 12.9354 65.7069 12.3194 66.3625 12.1269C68.1748 11.5494 70.0257 11.0105 71.8381 10.5485C72.4936 10.3945 72.9949 10.7795 73.2262 11.3954C73.4576 12.0499 73.2262 12.7044 72.6093 12.8969C70.7584 13.5513 68.8689 14.0903 67.1337 14.5908Z" fill="#81AED1"/>
<path d="M67.0951 -2.15384e-05C68.2519 -0.0385196 68.946 0.962431 68.5218 1.80939C67.6735 3.46481 66.7866 5.08173 65.8612 6.66015C65.5141 7.27612 64.7429 7.43011 64.126 7.08363C63.509 6.69865 63.2776 6.08268 63.5861 5.46671C64.4344 3.81129 65.3599 2.15587 66.3239 0.538952C66.4781 0.269465 66.9409 0.115473 67.0951 -2.15384e-05Z" fill="#81AED1"/>
</g>
<defs>
<clipPath id="clip0_181_103">
<rect width="75" height="81" fill="white"/>
</clipPath>
</defs>
</svg>
