<svg width="78" height="78" viewBox="0 0 78 78" fill="none" xmlns="http://www.w3.org/2000/svg">
<g clip-path="url(#clip0_181_93)">
<path d="M0 23.2967C0.497303 21.0015 1.83619 19.0888 3.06032 17.1378C5.73811 12.8534 8.41589 8.56891 11.0554 4.28445C12.8151 1.37715 15.3781 0 18.821 0C32.2864 0.038254 45.7136 0.038254 59.179 0C62.6219 0 65.1466 1.37715 66.9446 4.28445C70.0049 9.25748 73.1035 14.2688 76.2403 19.2035C77.4262 21.1162 78.1148 23.1054 78 25.3624C77.9235 27.0839 77.9617 28.8053 78 30.5267C78 33.128 77.0819 35.2702 75.1309 36.9534C74.7867 37.2594 74.8249 37.4125 75.1309 37.6802C77.0819 39.3634 78.0383 41.5439 78 44.1069C78 46.0961 78 48.1236 78 50.1128C78 51.3369 77.7705 52.4846 77.2732 53.5939C76.8141 54.5885 76.0108 54.9711 75.1309 54.6268C74.2894 54.2825 73.8686 53.4409 74.2894 52.408C74.7102 51.2987 74.8249 50.1893 74.7867 49.0417C74.7484 47.129 74.9014 45.178 74.7102 43.2653C74.4806 41.0083 72.874 39.3252 70.617 38.9809C70.2344 38.9044 69.8136 38.9044 69.3928 38.9044C49.1564 38.9044 28.8818 38.9044 8.64541 38.9044C6.00589 38.9044 4.13144 40.205 3.48112 42.5385C3.44286 42.6915 3.40461 42.8445 3.40461 42.9976C3.21334 45.5223 3.21334 48.0088 3.36636 50.5336C3.55763 53.4792 5.58509 55.1623 8.64541 55.1623C13.1594 55.1623 17.6734 55.1623 22.1873 55.1623C26.4335 55.1623 30.718 55.1623 34.9642 55.1623C35.7293 55.1623 36.3796 55.3154 36.7621 56.0422C37.2212 56.8838 36.8004 57.9549 35.8823 58.2992C35.4998 58.4139 35.1172 58.4139 34.7729 58.4139C26.051 58.4139 17.3291 58.4139 8.56891 58.4139C5.96763 58.4139 4.13144 59.7528 3.48112 62.0481C3.44286 62.2011 3.40461 62.3541 3.40461 62.5071C3.21334 64.9936 3.21334 67.4801 3.36636 69.9667C3.55763 72.9505 5.58509 74.6719 8.64541 74.6719C15.3399 74.6719 21.9961 74.6719 28.6905 74.6719C28.9583 74.6719 29.1878 74.6719 29.4556 74.6719C30.3355 74.7102 30.871 75.131 31.0623 75.896C31.2536 76.6229 30.9475 77.2732 30.1824 77.7322C30.1059 77.7705 30.0294 77.847 29.9529 77.8852C22.3404 77.8852 14.7278 77.8852 7.11525 77.8852C7.00049 77.7322 6.80922 77.7705 6.61795 77.7322C3.59588 77.0054 1.53016 75.1692 0.497303 72.2619C0.344286 71.8028 0.229524 71.3438 0.114762 70.923C0.114762 68.0157 0.114762 65.1466 0.114762 62.2393C0.153016 62.1246 0.229524 62.0098 0.267778 61.8951C0.573811 60.0971 1.4154 58.6052 2.75429 57.4193C3.28985 56.9603 3.48112 56.6925 2.79255 56.2335C2.44826 56.0039 2.18048 55.6214 1.9127 55.3154C0.956351 54.206 0.535557 52.8288 0.153016 51.4517C0.153016 48.5444 0.153016 45.6753 0.153016 42.768C0.19127 42.6533 0.267778 42.5385 0.306032 42.4237C0.612065 40.6258 1.45365 39.1339 2.79255 37.948C3.3281 37.489 3.51937 37.2212 2.8308 36.7621C2.48651 36.5326 2.21873 36.1501 1.95096 35.844C0.803335 34.7347 0.38254 33.3575 0 31.9804C0 29.1113 0 26.204 0 23.2967ZM39.0191 19.5096C28.9583 19.5096 18.9358 19.5096 8.87494 19.5096C8.56891 19.5096 8.26287 19.5096 7.95684 19.5096C5.43207 19.6626 3.55763 21.4223 3.3281 23.9088C3.09858 26.3188 3.21334 28.6905 3.28985 31.0623C3.28985 31.7126 3.44286 32.3629 3.7489 32.975C4.78176 35.0025 6.54144 35.7675 8.76018 35.7675C28.9201 35.7675 49.0417 35.7675 69.2016 35.7675C69.3928 35.7675 69.5459 35.7675 69.7371 35.7675C72.3384 35.6528 74.4041 34.0079 74.6336 31.7126C74.9014 29.1496 74.7867 26.5866 74.7102 24.0235C74.7102 23.7175 74.6336 23.4115 74.5571 23.1437C73.9451 20.8485 72.0706 19.5096 69.4694 19.5096C59.2938 19.5096 49.1564 19.5096 39.0191 19.5096ZM7.45954 16.258C28.4993 16.258 49.4625 16.258 70.5405 16.258C68.36 12.7386 66.2178 9.29573 64.0755 5.85287C63.0044 4.09318 61.436 3.25159 59.4085 3.25159C45.7901 3.25159 32.2099 3.25159 18.5915 3.25159C16.5257 3.25159 14.9956 4.09318 13.9245 5.85287C11.897 9.14272 9.86954 12.3943 7.80383 15.6842C7.68906 15.8372 7.61256 16.0284 7.45954 16.258Z" fill="#81AED1"/>
<path d="M39.5929 78C38.0245 77.6557 36.5709 77.0819 35.3085 76.0108C31.4831 72.7975 31.5979 66.6003 35.538 63.54C36.4179 62.8514 37.4125 62.3159 38.5218 62.0481C38.9426 61.9333 39.0956 61.7803 39.1722 61.3595C40.358 53.3262 47.588 47.8176 55.5831 48.927C59.4851 49.4625 62.6984 51.3752 65.1084 54.512C65.4909 55.0093 65.8352 55.3154 66.562 55.3154C72.4914 55.2389 77.4645 59.7911 77.9618 65.7205C78.4591 71.6116 74.2511 76.9672 68.36 77.8853C68.207 77.9235 68.054 77.8853 67.9392 78.0383C58.4904 78 49.0417 78 39.5929 78ZM53.7469 74.7484C57.8401 74.7484 61.9333 74.7484 65.9882 74.7484C66.4855 74.7484 67.0211 74.7102 67.5184 74.6719C71.0378 74.2894 74.1363 71.3821 74.5954 67.9392C75.131 64.0756 73.1035 60.4797 69.6224 59.1025C68.36 58.6052 67.0593 58.3375 65.6822 58.6052C64.5728 58.7965 63.7312 58.4905 63.1957 57.4576C63.1192 57.3046 63.0044 57.1516 62.8897 56.9986C60.5179 53.3644 55.9274 51.4135 51.643 52.1785C46.4022 53.1349 42.6533 57.3046 42.2325 62.6602C42.0795 64.5729 41.8117 64.8789 39.9372 65.0702C36.7239 65.4145 34.7347 69.1251 36.2266 72.0324C37.2212 73.9834 38.9044 74.7867 41.0083 74.7867C45.2928 74.7484 49.539 74.7484 53.7469 74.7484Z" fill="#81AED1"/>
<path d="M53.7087 42.2325C57.8019 42.2325 61.8568 42.2325 65.95 42.2325C67.4419 42.2325 68.2452 42.8063 68.2452 43.8774C68.2452 44.9485 67.4419 45.5223 65.95 45.5223C57.7254 45.5223 49.5007 45.5223 41.3144 45.5223C39.8225 45.5223 39.0191 44.9485 39.0191 43.8774C39.0191 42.8063 39.8225 42.2325 41.3144 42.2325C45.4458 42.2325 49.5772 42.2325 53.7087 42.2325Z" fill="#81AED1"/>
<path d="M11.3615 51.9873C8.64542 51.9873 6.50319 49.8068 6.50319 47.0908C6.54144 44.4512 8.72192 42.2708 11.3615 42.2708C14.0392 42.2708 16.258 44.5277 16.2197 47.1673C16.2197 49.8451 14.0392 51.9873 11.3615 51.9873ZM11.3997 45.5223C10.5199 45.5223 9.79304 46.2109 9.75478 47.0908C9.71653 47.9706 10.5199 48.7739 11.3615 48.7357C12.203 48.7357 12.9299 48.0089 12.9299 47.129C12.9681 46.2492 12.2796 45.5606 11.3997 45.5223Z" fill="#81AED1"/>
<path d="M11.3232 71.4586C8.60716 71.4586 6.46494 69.2398 6.50319 66.5238C6.54144 63.846 8.76018 61.7038 11.3997 61.742C14.0775 61.7803 16.2197 63.9608 16.2197 66.6003C16.258 69.2781 14.0392 71.4968 11.3232 71.4586ZM12.9681 66.6003C12.9681 65.7204 12.2796 65.0319 11.3997 65.0319C10.5199 65.0319 9.79304 65.7204 9.79304 66.6003C9.75478 67.4801 10.5581 68.2452 11.438 68.2452C12.2796 68.207 12.9681 67.4801 12.9681 66.6003Z" fill="#81AED1"/>
<path d="M53.6322 26.0127C49.539 26.0127 45.4076 26.0127 41.3144 26.0127C39.8225 26.0127 39.0191 25.4389 39.0191 24.3678C39.0191 23.2967 39.8225 22.7229 41.3144 22.7229C49.539 22.7229 57.7636 22.7229 65.95 22.7229C67.4419 22.7229 68.2452 23.2967 68.2452 24.3678C68.2452 25.4389 67.4419 26.0127 65.95 26.0127C61.8185 26.0127 57.7254 26.0127 53.6322 26.0127Z" fill="#81AED1"/>
<path d="M53.5939 32.4777C49.5773 32.4777 45.5223 32.4777 41.5056 32.4777C41.3144 32.4777 41.0849 32.4777 40.8936 32.4777C39.746 32.4394 38.9809 31.7891 39.0191 30.8327C39.0574 29.8764 39.7842 29.2643 40.8936 29.2261C49.386 29.2261 57.9166 29.2261 66.409 29.2261C67.5184 29.2261 68.2452 29.9146 68.2452 30.8327C68.2452 31.7508 67.5184 32.4394 66.409 32.4394C62.1246 32.5159 57.8784 32.4777 53.5939 32.4777Z" fill="#81AED1"/>
<path d="M11.3615 32.4777C8.64542 32.4777 6.50319 30.2972 6.50319 27.5812C6.50319 24.9034 8.72192 22.7229 11.3615 22.7612C14.0392 22.7612 16.258 25.0182 16.2197 27.6577C16.2197 30.3355 14.0392 32.4777 11.3615 32.4777ZM11.4762 26.051C10.5581 26.0128 9.79304 26.7013 9.75478 27.5812C9.71653 28.4228 10.4434 29.1879 11.2849 29.2261C12.1265 29.2644 12.8916 28.5758 12.9299 27.6959C13.0064 26.8161 12.3561 26.0893 11.4762 26.051Z" fill="#81AED1"/>
</g>
<defs>
<clipPath id="clip0_181_93">
<rect width="78" height="78" fill="white"/>
</clipPath>
</defs>
</svg>
