<svg width="92" height="67" viewBox="0 0 92 67" fill="none" xmlns="http://www.w3.org/2000/svg">
<path d="M92 64.6565C91.3483 66.4237 90.045 67 88.205 67C59.9533 66.9616 31.74 66.9616 3.48833 66.9616C1.61 66.9616 0.46 66.1932 0.0766667 64.6565C0 64.3108 0 63.965 0 63.6193C0 43.527 0 23.4346 0 3.38073C0 1.19094 1.18833 0 3.335 0C31.7783 0 60.2217 0 88.665 0C90.3517 0 91.425 0.806766 92 2.34346C92 23.0889 92 43.8727 92 64.6565ZM88.9717 17.9025C60.2983 17.9025 31.7017 17.9025 3.06667 17.9025C3.06667 33.2695 3.06667 48.5981 3.06667 63.8882C31.74 63.8882 60.375 63.8882 88.9717 63.8882C88.9717 48.5212 88.9717 33.2311 88.9717 17.9025ZM3.02833 14.8675C31.7017 14.8675 60.2983 14.8675 88.9717 14.8675C88.9717 10.9106 88.9717 6.99197 88.9717 3.07339C60.26 3.07339 31.6633 3.07339 3.02833 3.07339C3.02833 7.03039 3.02833 10.9106 3.02833 14.8675Z" fill="#81AED1"/>
<path d="M36.9917 29.7351C37.1067 28.5441 37.145 27.4684 37.375 26.4696C38.18 23.1657 41.0167 20.8991 44.39 20.8606C45.8083 20.8222 47.2267 20.7454 48.6067 20.9375C52.0567 21.3985 54.5867 24.203 54.855 27.6989C54.8933 28.3136 54.9317 28.9667 54.9317 29.7351C55.2383 29.7351 55.5833 29.7351 55.89 29.7351C58.305 29.7351 60.7583 29.7351 63.1733 29.7351C64.8983 29.7351 65.3967 30.2729 65.205 32.0017C64.6683 37.1112 64.0933 42.1823 63.5183 47.2918C63.135 50.7878 62.7517 54.2838 62.3683 57.7414C62.215 59.0476 61.755 59.5086 60.49 59.5086C50.83 59.5086 41.2083 59.5086 31.5483 59.5086C30.245 59.5086 29.785 59.0476 29.6317 57.7414C28.75 49.8274 27.8683 41.9518 26.9867 34.0378C26.91 33.2695 26.795 32.5011 26.7567 31.6944C26.6417 30.2729 27.1783 29.6967 28.635 29.6967C31.0883 29.6967 33.5417 29.6967 35.995 29.6967C36.34 29.7351 36.6467 29.7351 36.9917 29.7351ZM32.5067 56.512C41.5917 56.512 50.5233 56.512 59.5317 56.512C60.4133 48.598 61.295 40.7609 62.1767 32.8085C51.405 32.8085 40.6717 32.8085 29.9 32.8085C30.7433 40.7225 31.625 48.598 32.5067 56.512ZM51.9417 29.6967C51.9417 29.2356 51.9417 28.8131 51.9417 28.3905C51.9033 25.7781 50.1017 23.934 47.5333 23.8188C46.69 23.7804 45.8467 23.8188 45.0033 23.8188C41.5533 23.8188 39.5983 26.2007 40.1733 29.6967C44.045 29.6967 47.9167 29.6967 51.9417 29.6967Z" fill="#81AED1"/>
<path d="M29.67 13.4077C27.2167 13.4077 25.2233 11.41 25.2233 8.95123C25.2233 6.49252 27.255 4.49481 29.67 4.49481C32.1233 4.49481 34.1167 6.49252 34.1167 8.95123C34.1167 11.41 32.1233 13.4077 29.67 13.4077ZM31.1267 8.98965C31.1267 8.14447 30.5133 7.49137 29.67 7.49137C28.865 7.49137 28.2517 8.10605 28.2133 8.8744C28.175 9.68117 28.8267 10.4111 29.6317 10.4111C30.4367 10.4495 31.1267 9.79642 31.1267 8.98965Z" fill="#81AED1"/>
<path d="M4.48499 8.91287C4.48499 6.45416 6.47832 4.45645 8.93166 4.49487C11.385 4.49487 13.34 6.49257 13.34 8.98971C13.34 11.4868 11.3467 13.4461 8.89332 13.4077C6.40166 13.3693 4.44666 11.41 4.48499 8.91287ZM8.89332 7.49143C8.08832 7.49143 7.39832 8.14452 7.39832 8.95129C7.39832 9.75806 8.08832 10.4112 8.89332 10.4112C9.69832 10.4112 10.3883 9.71964 10.3883 8.91287C10.3883 8.14452 9.69832 7.49143 8.89332 7.49143Z" fill="#81AED1"/>
<path d="M14.8733 8.95123C14.8733 6.49252 16.8283 4.49481 19.2817 4.49481C21.735 4.49481 23.7283 6.4541 23.7283 8.95123C23.7283 11.41 21.7733 13.4077 19.2817 13.4077C16.8283 13.4077 14.8733 11.4484 14.8733 8.95123ZM19.32 10.4111C20.125 10.4111 20.7767 9.68117 20.7767 8.91282C20.7767 8.10605 20.0867 7.45296 19.2817 7.49137C18.4767 7.49137 17.825 8.18289 17.825 8.98965C17.825 9.758 18.515 10.4495 19.32 10.4111Z" fill="#81AED1"/>
<path d="M73.4083 8.95127C71.8367 8.95127 70.2267 8.95127 68.655 8.95127C67.4667 8.95127 66.815 8.41343 66.815 7.45299C66.815 6.49256 67.4667 5.95471 68.6167 5.95471C71.8367 5.95471 75.0567 5.95471 78.315 5.95471C79.4267 5.95471 80.155 6.56939 80.155 7.49141C80.1167 8.37501 79.465 8.95127 78.3533 8.95127C76.705 8.95127 75.0567 8.95127 73.4083 8.95127Z" fill="#81AED1"/>
<path d="M85.2917 8.95128C85.0617 8.95128 84.8317 8.95128 84.5634 8.95128C83.6817 8.87444 83.0684 8.29818 83.0684 7.453C83.0684 6.64623 83.6434 6.03155 84.525 5.95472C84.985 5.9163 85.4067 5.9163 85.8667 5.95472C86.9017 5.99313 87.4767 6.60781 87.4767 7.49141C87.4767 8.3366 86.8634 8.91286 85.8667 8.95128C85.7134 8.95128 85.5217 8.95128 85.2917 8.95128Z" fill="#81AED1"/>
</svg>
