<svg width="85" height="75" viewBox="0 0 85 75" fill="none" xmlns="http://www.w3.org/2000/svg">
<g clip-path="url(#clip0_181_85)">
<path d="M85 70.3077C84.6133 71.6811 83.9945 72.94 82.8344 73.8555C80.8621 75.3815 77.9231 75.4196 75.9895 73.8555C75.6028 73.5504 75.2548 73.207 74.8681 72.8637C70.8462 68.8962 66.7857 64.9288 62.8025 60.9232C62.3772 60.5036 62.1065 60.4654 61.5651 60.7325C49.6929 66.9507 34.843 60.9232 30.8985 48.2197C29.5837 44.0234 29.5837 39.7889 30.9372 35.5544C31.0146 35.3637 31.0532 35.1348 31.1306 34.944C31.1306 34.9059 31.1306 34.8296 31.0919 34.7152C30.7825 34.7152 30.5118 34.7152 30.2025 34.7152C22.4682 34.7152 14.7725 34.7152 7.03822 34.7152C3.67379 34.7152 1.16015 32.884 0.309372 29.8321C0.077343 29.1836 0 28.4588 0 27.734C0 20.8291 0 13.9242 0 7.01933C0 2.78484 2.82302 0.0381485 7.11556 0C9.12648 0 11.1374 0 13.187 0C14.2311 0 14.9272 0.534079 15.0819 1.37335C15.2752 2.40336 14.4631 3.24262 13.2257 3.24262C11.2147 3.24262 9.20382 3.24262 7.15423 3.24262C4.64058 3.24262 3.32575 4.53967 3.32575 7.01933C3.32575 13.8861 3.32575 20.7909 3.32575 27.6577C3.32575 30.0992 4.64058 31.3962 7.11556 31.3962C15.3913 31.3962 23.667 31.3962 31.9427 31.3962C32.2907 31.3962 32.7934 31.2436 32.9481 30.9766C35.1911 27.4669 38.1688 24.7202 41.9973 22.851C42.0746 22.8128 42.1906 22.7365 42.3066 22.6602C41.3012 20.7528 40.2957 18.8454 39.2516 16.8235C38.4395 18.502 37.6661 20.028 36.9313 21.5539C36.7766 21.8591 36.6606 22.1643 36.4672 22.4313C35.7712 23.5376 34.263 23.6139 33.6055 22.4313C32.0587 19.6083 30.5505 16.7472 29.081 13.8861C28.6556 13.0086 29.0036 12.0931 29.7771 11.7116C30.6278 11.292 31.556 11.559 32.0587 12.5127C33.0255 14.2675 33.9149 16.0224 34.9204 17.8917C35.0751 17.6246 35.1911 17.4339 35.3071 17.2431C36.0032 15.7935 36.7379 14.3438 37.434 12.8942C37.7821 12.1312 38.2075 11.4827 39.1742 11.4827C40.0637 11.4827 40.5277 12.0931 40.8758 12.8179C41.7266 14.4964 42.616 16.1368 43.5828 17.9298C44.3562 16.3276 45.091 14.8398 45.8257 13.3901C46.0191 13.0086 46.2125 12.589 46.4445 12.2457C46.9472 11.5209 47.798 11.292 48.5714 11.6734C49.3062 12.0549 49.6542 12.8179 49.3449 13.619C48.9195 14.649 48.4167 15.6409 47.914 16.6709C47.1793 18.1968 46.4058 19.7609 45.5937 21.4395C48.6101 20.6765 51.4718 20.4476 54.5655 20.8672C54.0628 19.9135 53.6761 19.1124 53.2507 18.3494C52.5159 16.9379 51.7425 15.4883 51.0077 14.0768C50.505 13.1231 50.7757 12.1694 51.5878 11.7116C52.4386 11.2538 53.4054 11.559 53.9468 12.5509C54.8749 14.2675 55.7643 16.0224 56.7311 17.8917C56.8858 17.6628 57.0018 17.472 57.0792 17.3194C57.8526 15.7935 58.5873 14.2294 59.3608 12.6653C59.6702 11.9786 60.1342 11.5209 60.9076 11.5209C61.7197 11.4827 62.2225 11.9786 62.5705 12.6653C63.46 14.382 64.3881 16.0987 65.3162 17.9298C65.4709 17.7009 65.5869 17.5102 65.7029 17.3576C66.4377 15.8316 67.1724 14.3057 67.9459 12.7798C68.4873 11.6734 69.3767 11.292 70.2661 11.7116C71.1943 12.1312 71.465 13.0468 70.9236 14.1531C69.6474 16.8235 68.3326 19.4939 67.0177 22.2024C66.7084 22.851 66.2056 23.3087 65.4322 23.3087C64.6588 23.3087 64.156 22.851 63.808 22.2024C62.9186 20.4476 61.9904 18.7309 60.985 16.8616C60.1342 18.5783 59.3608 20.1806 58.5487 21.8591C58.7807 21.9736 58.9741 22.088 59.2061 22.1643C63.7307 23.9191 67.2884 26.8566 69.8021 30.9385C70.0728 31.3581 70.3435 31.5488 70.8462 31.5107C73.2439 31.4725 75.6028 31.5107 78.0004 31.5107C80.2434 31.5107 81.6356 30.1755 81.6356 27.9247C81.6356 20.9435 81.6356 13.9624 81.6356 6.94303C81.6356 4.61597 80.2821 3.31892 77.9231 3.31892C61.4877 3.31892 45.0523 3.31892 28.6169 3.31892C28.2689 3.31892 27.9595 3.31892 27.6115 3.28077C26.7607 3.12818 26.2193 2.47965 26.1806 1.71668C26.1806 0.915565 26.7607 0.228891 27.6501 0.0762971C27.9982 0 28.2689 0 28.5396 0C44.975 0 61.4104 0.0381485 77.8458 0C81.5196 0 84.3813 2.28891 84.9227 5.53154C84.9227 5.60783 85 5.68413 85.0387 5.76043C85.0387 13.5046 85.0387 21.2869 85.0387 29.031C85 29.1455 84.9227 29.2981 84.9227 29.4125C84.4586 31.5488 83.2985 33.1892 81.2489 34.0666C80.2434 34.4863 79.0833 34.677 77.9618 34.7533C75.9509 34.8678 73.9399 34.7915 71.8903 34.7915C74.6747 44.176 72.3931 52.1109 65.0842 58.5961C69.338 62.7925 73.5532 66.9888 77.7684 71.147C77.8458 71.2233 77.8844 71.2614 77.9618 71.2996C79.354 72.3296 81.3262 71.6429 81.6356 69.9644C81.8289 69.087 81.4809 68.3622 80.8235 67.7518C79.2379 66.1877 77.6524 64.6236 76.0669 63.0595C75.4868 62.4873 75.1388 61.8388 75.4868 60.9995C75.9895 59.8932 77.3044 59.7024 78.3098 60.6562C79.6247 61.9151 80.9008 63.2503 82.2543 64.5092C83.5305 65.6918 84.6133 66.9507 85 68.7055C85 69.2014 85 69.7355 85 70.3077ZM51.5105 59.9695C61.5651 59.9313 69.8021 51.7675 69.7247 41.8871C69.6861 31.9685 61.4877 23.9191 51.4718 23.9191C41.4172 23.9191 33.1802 32.0448 33.2188 41.9634C33.2188 51.882 41.4945 60.0076 51.5105 59.9695Z" fill="white"/>
<path d="M21.8107 17.9298C22.7002 16.0987 23.5123 14.382 24.3631 12.7034C24.8271 11.7497 25.5232 11.3682 26.3353 11.559C27.4955 11.826 27.9208 12.8942 27.3794 14.0768C26.3353 16.2894 25.2138 18.502 24.1697 20.7146C23.9377 21.1724 23.7056 21.6302 23.4736 22.1261C23.1642 22.8128 22.7002 23.2706 21.9268 23.2706C21.1147 23.3087 20.6119 22.8128 20.2639 22.1261C19.3744 20.4094 18.4463 18.6928 17.5182 16.8616C17.3635 17.1668 17.2088 17.3576 17.1315 17.5483C16.3581 19.0742 15.6233 20.6383 14.8499 22.2024C14.5405 22.8509 14.0764 23.2706 13.303 23.2706C12.5682 23.2706 12.0655 22.8891 11.7175 22.2787C10.2866 19.532 8.81711 16.8235 7.42493 14.0768C6.9222 13.0849 7.15423 12.1694 8.00501 11.7116C8.85578 11.2538 9.82257 11.559 10.364 12.5508C11.1761 14.0386 11.9495 15.5646 12.7229 17.0524C12.8776 17.3194 13.0323 17.5864 13.2257 17.9298C14.0764 16.2131 14.8499 14.6109 15.6233 13.0086C15.7393 12.7416 15.894 12.4745 16.0487 12.2075C16.8221 11.1012 18.253 11.2538 18.949 12.4745C19.7998 14.0005 20.5733 15.5646 21.3854 17.1287C21.5014 17.3576 21.6174 17.5864 21.8107 17.9298Z" fill="white"/>
<path d="M20.9213 3.2808C20.0705 3.2808 19.2971 2.47968 19.2971 1.64041C19.2971 0.801146 20.0705 2.67997e-05 20.96 0.0381753C21.8107 0.0381753 22.6228 0.839294 22.5842 1.67856C22.5455 2.51783 21.7721 3.2808 20.9213 3.2808Z" fill="white"/>
<path d="M73.0505 56.1165C73.9013 56.0783 74.7134 56.8413 74.7134 57.7187C74.7521 58.5961 73.9786 59.3591 73.0892 59.3591C72.1997 59.3591 71.4263 58.6343 71.3876 57.795C71.3876 56.9176 72.1611 56.1165 73.0505 56.1165Z" fill="white"/>
<path d="M51.4718 27.5432C59.4768 27.5432 66.0509 33.9903 66.0896 41.9252C66.1283 49.8601 59.5541 56.3835 51.4718 56.3835C43.4281 56.3835 36.8153 49.8601 36.854 41.9252C36.8926 33.9903 43.4668 27.5432 51.4718 27.5432ZM51.5105 30.824C45.2843 30.824 40.2184 35.8214 40.2184 41.9634C40.2184 48.0671 45.2457 53.0646 51.4331 53.1027C57.6592 53.1409 62.7639 48.1434 62.7639 42.0015C62.7639 35.8596 57.6979 30.824 51.5105 30.824Z" fill="white"/>
<path d="M58.9354 41.8108C58.9354 42.7645 58.2393 43.5275 57.3498 43.5656C56.4217 43.6038 55.7643 42.9171 55.6483 41.8489C55.4163 39.7126 54.1401 38.263 52.1679 37.9196C51.8972 37.8815 51.6265 37.8815 51.3558 37.8433C50.389 37.6907 49.7702 36.9278 49.8862 36.0885C50.0023 35.2111 50.737 34.6007 51.6651 34.6007C55.4936 34.6007 58.9354 37.9959 58.9354 41.8108Z" fill="white"/>
</g>
<defs>
<clipPath id="clip0_181_85">
<rect width="85" height="75" fill="white"/>
</clipPath>
</defs>
</svg>
